<svg id="visual" viewBox="0 0 900 600" width="900" height="600" xmlns="http://www.w3.org/2000/svg" xmlns:xlink="http://www.w3.org/1999/xlink" version="1.1"><g stroke-width="1" stroke-linejoin="bevel"><path d="M455.5 284L514.5 333L481.4 271Z" fill="#0081f4" stroke="#0081f4"></path><path d="M455.5 284L494.5 347L514.5 333Z" fill="#83bef9" stroke="#83bef9"></path><path d="M514.5 333L518.4 272L481.4 271Z" fill="#60aaf9" stroke="#60aaf9"></path><path d="M518.4 272L499.5 249L481.4 271Z" fill="#3a96f7" stroke="#3a96f7"></path><path d="M481.4 271L484.5 214L455.5 284Z" fill="#a5d1f9" stroke="#a5d1f9"></path><path d="M399.5 340L466.5 381L494.5 347Z" fill="#c9e4f9" stroke="#c9e4f9"></path><path d="M546.4 372L550.4 347L514.5 333Z" fill="#0039db" stroke="#0039db"></path><path d="M546.4 372L514.5 333L494.5 347Z" fill="#60aaf9" stroke="#60aaf9"></path><path d="M514.5 333L550.4 347L518.4 272Z" fill="#0054e6" stroke="#0054e6"></path><path d="M466.5 381L546.4 372L494.5 347Z" fill="#0054e6" stroke="#0054e6"></path><path d="M455.5 284L399.5 340L494.5 347Z" fill="#83bef9" stroke="#83bef9"></path><path d="M546.4 168L484.5 214L499.5 249Z" fill="#3a96f7" stroke="#3a96f7"></path><path d="M499.5 249L484.5 214L481.4 271Z" fill="#60aaf9" stroke="#60aaf9"></path><path d="M455.5 284L371.6 324L399.5 340Z" fill="#60aaf9" stroke="#60aaf9"></path><path d="M399.5 340L451.5 400L466.5 381Z" fill="#0012cd" stroke="#0012cd"></path><path d="M466.5 381L486.4 446L546.4 372Z" fill="#60aaf9" stroke="#60aaf9"></path><path d="M546.4 372L577.4 340L550.4 347Z" fill="#83bef9" stroke="#83bef9"></path><path d="M550.4 347L577.4 340L518.4 272Z" fill="#eef5fa" stroke="#eef5fa"></path><path d="M518.4 272L586.4 235L499.5 249Z" fill="#0081f4" stroke="#0081f4"></path><path d="M415.6 207L371.6 324L455.5 284Z" fill="#0012cd" stroke="#0012cd"></path><path d="M399.5 340L395.5 452L451.5 400Z" fill="#c9e4f9" stroke="#c9e4f9"></path><path d="M577.4 340L602.4 312L518.4 272Z" fill="#c9e4f9" stroke="#c9e4f9"></path><path d="M484.5 214L415.6 207L455.5 284Z" fill="#0012cd" stroke="#0012cd"></path><path d="M602.4 312L586.4 235L518.4 272Z" fill="#006bee" stroke="#006bee"></path><path d="M395.5 452L486.4 446L451.5 400Z" fill="#3a96f7" stroke="#3a96f7"></path><path d="M451.5 400L486.4 446L466.5 381Z" fill="#0054e6" stroke="#0054e6"></path><path d="M546.4 372L555.4 432L577.4 340Z" fill="#0081f4" stroke="#0081f4"></path><path d="M577.4 340L626.4 321L602.4 312Z" fill="#0012cd" stroke="#0012cd"></path><path d="M405.6 180L397.5 200L415.6 207Z" fill="#0054e6" stroke="#0054e6"></path><path d="M415.6 207L340.6 300L371.6 324Z" fill="#006bee" stroke="#006bee"></path><path d="M486.4 446L555.4 432L546.4 372Z" fill="#0039db" stroke="#0039db"></path><path d="M649.3 443L626.4 321L577.4 340Z" fill="#3a96f7" stroke="#3a96f7"></path><path d="M602.4 312L621.4 260L586.4 235Z" fill="#006bee" stroke="#006bee"></path><path d="M397.5 200L340.6 300L415.6 207Z" fill="#0012cd" stroke="#0012cd"></path><path d="M371.6 324L339.6 380L399.5 340Z" fill="#3a96f7" stroke="#3a96f7"></path><path d="M631.3 267L621.4 260L602.4 312Z" fill="#60aaf9" stroke="#60aaf9"></path><path d="M467.5 143L405.6 180L415.6 207Z" fill="#3a96f7" stroke="#3a96f7"></path><path d="M397.5 200L371.5 181L340.6 300Z" fill="#60aaf9" stroke="#60aaf9"></path><path d="M467.5 143L415.6 207L484.5 214Z" fill="#0054e6" stroke="#0054e6"></path><path d="M637.3 300L631.3 267L602.4 312Z" fill="#c9e4f9" stroke="#c9e4f9"></path><path d="M550.4 145L546.4 168L614.3 157Z" fill="#eef5fa" stroke="#eef5fa"></path><path d="M626.4 321L637.3 300L602.4 312Z" fill="#a5d1f9" stroke="#a5d1f9"></path><path d="M637.2 243L586.4 235L621.4 260Z" fill="#006bee" stroke="#006bee"></path><path d="M586.4 235L546.4 168L499.5 249Z" fill="#83bef9" stroke="#83bef9"></path><path d="M318.6 352L339.6 380L371.6 324Z" fill="#c9e4f9" stroke="#c9e4f9"></path><path d="M683.3 269L637.2 243L631.3 267Z" fill="#83bef9" stroke="#83bef9"></path><path d="M631.3 267L637.2 243L621.4 260Z" fill="#0012cd" stroke="#0012cd"></path><path d="M546.4 168L467.5 143L484.5 214Z" fill="#83bef9" stroke="#83bef9"></path><path d="M339.6 380L395.5 452L399.5 340Z" fill="#83bef9" stroke="#83bef9"></path><path d="M398.5 158L371.5 181L405.6 180Z" fill="#a5d1f9" stroke="#a5d1f9"></path><path d="M405.6 180L371.5 181L397.5 200Z" fill="#0054e6" stroke="#0054e6"></path><path d="M310.6 324L318.6 352L340.6 300Z" fill="#0039db" stroke="#0039db"></path><path d="M340.6 300L318.6 352L371.6 324Z" fill="#83bef9" stroke="#83bef9"></path><path d="M467.5 143L398.5 158L405.6 180Z" fill="#0039db" stroke="#0039db"></path><path d="M256.7 300L310.6 324L340.6 300Z" fill="#0054e6" stroke="#0054e6"></path><path d="M616.4 171L546.4 168L586.4 235Z" fill="#0012cd" stroke="#0012cd"></path><path d="M546.4 168L550.4 145L467.5 143Z" fill="#eef5fa" stroke="#eef5fa"></path><path d="M626.4 321L661.2 291L637.3 300Z" fill="#c9e4f9" stroke="#c9e4f9"></path><path d="M637.3 300L661.2 291L631.3 267Z" fill="#83bef9" stroke="#83bef9"></path><path d="M707.2 367L661.2 291L626.4 321Z" fill="#006bee" stroke="#006bee"></path><path d="M541.4 120L452.5 126L467.5 143Z" fill="#a5d1f9" stroke="#a5d1f9"></path><path d="M467.5 143L452.5 126L398.5 158Z" fill="#0039db" stroke="#0039db"></path><path d="M378.6 509L414.6 485L395.5 452Z" fill="#83bef9" stroke="#83bef9"></path><path d="M395.5 452L414.6 485L486.4 446Z" fill="#c9e4f9" stroke="#c9e4f9"></path><path d="M486.4 446L522.5 504L555.4 432Z" fill="#0012cd" stroke="#0012cd"></path><path d="M378.6 509L395.5 452L319.6 479Z" fill="#3a96f7" stroke="#3a96f7"></path><path d="M414.6 485L446.5 496L486.4 446Z" fill="#006bee" stroke="#006bee"></path><path d="M637.2 243L616.4 171L586.4 235Z" fill="#60aaf9" stroke="#60aaf9"></path><path d="M614.3 157L616.4 171L647.2 172Z" fill="#3a96f7" stroke="#3a96f7"></path><path d="M605.4 92L541.4 120L550.4 145Z" fill="#eef5fa" stroke="#eef5fa"></path><path d="M550.4 145L541.4 120L467.5 143Z" fill="#0054e6" stroke="#0054e6"></path><path d="M398.5 158L394.6 133L371.5 181Z" fill="#c9e4f9" stroke="#c9e4f9"></path><path d="M452.5 126L394.6 133L398.5 158Z" fill="#83bef9" stroke="#83bef9"></path><path d="M458.5 511L522.5 504L486.4 446Z" fill="#a5d1f9" stroke="#a5d1f9"></path><path d="M555.4 432L649.3 443L577.4 340Z" fill="#60aaf9" stroke="#60aaf9"></path><path d="M650.3 178L616.4 171L637.2 243Z" fill="#0081f4" stroke="#0081f4"></path><path d="M616.4 171L614.3 157L546.4 168Z" fill="#eef5fa" stroke="#eef5fa"></path><path d="M724.2 312L683.3 269L661.2 291Z" fill="#3a96f7" stroke="#3a96f7"></path><path d="M661.2 291L683.3 269L631.3 267Z" fill="#006bee" stroke="#006bee"></path><path d="M446.5 542L458.5 511L446.5 496Z" fill="#0039db" stroke="#0039db"></path><path d="M446.5 496L458.5 511L486.4 446Z" fill="#eef5fa" stroke="#eef5fa"></path><path d="M560.4 512L555.4 501L539.4 526Z" fill="#0054e6" stroke="#0054e6"></path><path d="M522.5 504L555.4 501L555.4 432Z" fill="#0039db" stroke="#0039db"></path><path d="M513.4 57L442.5 106L452.5 126Z" fill="#0012cd" stroke="#0012cd"></path><path d="M452.5 126L417.6 106L394.6 133Z" fill="#0081f4" stroke="#0081f4"></path><path d="M688.2 244L650.3 178L637.2 243Z" fill="#a5d1f9" stroke="#a5d1f9"></path><path d="M649.2 465L649.3 443L635.3 480Z" fill="#0081f4" stroke="#0081f4"></path><path d="M650.3 178L647.2 172L616.4 171Z" fill="#0012cd" stroke="#0012cd"></path><path d="M614.3 157L605.4 92L550.4 145Z" fill="#3a96f7" stroke="#3a96f7"></path><path d="M442.5 106L417.6 106L452.5 126Z" fill="#83bef9" stroke="#83bef9"></path><path d="M683.3 269L688.2 244L637.2 243Z" fill="#eef5fa" stroke="#eef5fa"></path><path d="M718.2 174L646.2 127L647.2 172Z" fill="#3a96f7" stroke="#3a96f7"></path><path d="M288.7 146L314.6 178L341.6 98Z" fill="#3a96f7" stroke="#3a96f7"></path><path d="M341.6 98L314.6 178L371.5 181Z" fill="#0081f4" stroke="#0081f4"></path><path d="M371.5 181L314.6 178L340.6 300Z" fill="#0039db" stroke="#0039db"></path><path d="M539.4 526L555.4 501L522.5 504Z" fill="#0081f4" stroke="#0081f4"></path><path d="M635.3 480L649.3 443L555.4 432Z" fill="#006bee" stroke="#006bee"></path><path d="M310.6 324L274.6 368L318.6 352Z" fill="#0081f4" stroke="#0081f4"></path><path d="M318.6 352L274.6 368L339.6 380Z" fill="#0054e6" stroke="#0054e6"></path><path d="M256.7 300L274.6 368L310.6 324Z" fill="#3a96f7" stroke="#3a96f7"></path><path d="M446.5 542L539.4 526L522.5 504Z" fill="#006bee" stroke="#006bee"></path><path d="M319.6 479L395.5 452L339.6 380Z" fill="#0039db" stroke="#0039db"></path><path d="M414.6 485L446.5 542L446.5 496Z" fill="#83bef9" stroke="#83bef9"></path><path d="M458.5 511L446.5 542L522.5 504Z" fill="#eef5fa" stroke="#eef5fa"></path><path d="M635.3 480L555.4 432L555.4 501Z" fill="#0039db" stroke="#0039db"></path><path d="M649.3 443L707.2 367L626.4 321Z" fill="#0054e6" stroke="#0054e6"></path><path d="M683.3 269L768.1 272L688.2 244Z" fill="#006bee" stroke="#006bee"></path><path d="M635.3 480L555.4 501L560.4 512Z" fill="#a5d1f9" stroke="#a5d1f9"></path><path d="M266.6 219L256.7 300L340.6 300Z" fill="#a5d1f9" stroke="#a5d1f9"></path><path d="M666.3 551L635.3 480L560.4 512Z" fill="#3a96f7" stroke="#3a96f7"></path><path d="M693.2 426L707.2 367L649.3 443Z" fill="#60aaf9" stroke="#60aaf9"></path><path d="M314.6 178L266.6 219L340.6 300Z" fill="#c9e4f9" stroke="#c9e4f9"></path><path d="M402.6 558L446.5 542L414.6 485Z" fill="#a5d1f9" stroke="#a5d1f9"></path><path d="M271.7 436L319.6 479L339.6 380Z" fill="#0039db" stroke="#0039db"></path><path d="M673.3 470L649.3 443L649.2 465Z" fill="#0054e6" stroke="#0054e6"></path><path d="M673.3 470L693.2 426L649.3 443Z" fill="#eef5fa" stroke="#eef5fa"></path><path d="M780.1 343L724.2 312L707.2 367Z" fill="#eef5fa" stroke="#eef5fa"></path><path d="M707.2 367L724.2 312L661.2 291Z" fill="#0039db" stroke="#0039db"></path><path d="M721.2 209L650.3 178L688.2 244Z" fill="#83bef9" stroke="#83bef9"></path><path d="M718.2 174L647.2 172L650.3 178Z" fill="#3a96f7" stroke="#3a96f7"></path><path d="M647.2 172L646.2 127L614.3 157Z" fill="#83bef9" stroke="#83bef9"></path><path d="M541.4 120L513.4 57L452.5 126Z" fill="#006bee" stroke="#006bee"></path><path d="M235.7 384L271.7 436L274.6 368Z" fill="#0012cd" stroke="#0012cd"></path><path d="M274.6 368L271.7 436L339.6 380Z" fill="#006bee" stroke="#006bee"></path><path d="M635.3 480L673.3 470L649.2 465Z" fill="#eef5fa" stroke="#eef5fa"></path><path d="M666.3 551L673.3 470L635.3 480Z" fill="#c9e4f9" stroke="#c9e4f9"></path><path d="M646.2 127L605.4 92L614.3 157Z" fill="#0054e6" stroke="#0054e6"></path><path d="M442.5 33L365.6 68L417.6 106Z" fill="#3a96f7" stroke="#3a96f7"></path><path d="M288.7 146L254.8 209L314.6 178Z" fill="#83bef9" stroke="#83bef9"></path><path d="M314.6 178L254.8 209L266.6 219Z" fill="#60aaf9" stroke="#60aaf9"></path><path d="M266.6 219L227.7 238L256.7 300Z" fill="#60aaf9" stroke="#60aaf9"></path><path d="M605.4 92L513.4 57L541.4 120Z" fill="#a5d1f9" stroke="#a5d1f9"></path><path d="M341.6 98L371.5 181L394.6 133Z" fill="#3a96f7" stroke="#3a96f7"></path><path d="M341.6 98L394.6 133L365.6 68Z" fill="#a5d1f9" stroke="#a5d1f9"></path><path d="M365.6 68L394.6 133L417.6 106Z" fill="#006bee" stroke="#006bee"></path><path d="M267.7 534L321.6 508L319.6 479Z" fill="#0081f4" stroke="#0081f4"></path><path d="M319.6 479L321.6 508L378.6 509Z" fill="#0012cd" stroke="#0012cd"></path><path d="M378.6 509L402.6 558L414.6 485Z" fill="#c9e4f9" stroke="#c9e4f9"></path><path d="M768.1 272L721.2 209L688.2 244Z" fill="#0039db" stroke="#0039db"></path><path d="M223.8 349L274.6 368L256.7 300Z" fill="#3a96f7" stroke="#3a96f7"></path><path d="M223.8 349L235.7 384L274.6 368Z" fill="#60aaf9" stroke="#60aaf9"></path><path d="M446.5 542L540.4 563L539.4 526Z" fill="#83bef9" stroke="#83bef9"></path><path d="M539.4 526L540.4 563L560.4 512Z" fill="#006bee" stroke="#006bee"></path><path d="M385.5 593L402.6 558L378.6 509Z" fill="#3a96f7" stroke="#3a96f7"></path><path d="M446.5 542L523.5 600L540.4 563Z" fill="#83bef9" stroke="#83bef9"></path><path d="M216.8 321L223.8 349L256.7 300Z" fill="#eef5fa" stroke="#eef5fa"></path><path d="M216.8 239L227.7 238L231.8 195Z" fill="#0039db" stroke="#0039db"></path><path d="M254.8 209L227.7 238L266.6 219Z" fill="#3a96f7" stroke="#3a96f7"></path><path d="M341.6 98L281.6 136L288.7 146Z" fill="#60aaf9" stroke="#60aaf9"></path><path d="M288.7 146L231.8 195L254.8 209Z" fill="#3a96f7" stroke="#3a96f7"></path><path d="M216.8 239L216.8 321L256.7 300Z" fill="#0039db" stroke="#0039db"></path><path d="M442.5 33L417.6 106L442.5 106Z" fill="#006bee" stroke="#006bee"></path><path d="M341.6 98L282.7 59L281.6 136Z" fill="#0054e6" stroke="#0054e6"></path><path d="M721.2 209L718.2 174L650.3 178Z" fill="#c9e4f9" stroke="#c9e4f9"></path><path d="M646.2 127L632.3 80L605.4 92Z" fill="#0054e6" stroke="#0054e6"></path><path d="M688.2 31L632.3 80L646.2 127Z" fill="#eef5fa" stroke="#eef5fa"></path><path d="M572.4 0L553.4 0L513.4 57Z" fill="#c9e4f9" stroke="#c9e4f9"></path><path d="M693.2 426L745.1 395L707.2 367Z" fill="#0054e6" stroke="#0054e6"></path><path d="M724.2 312L768.1 272L683.3 269Z" fill="#0054e6" stroke="#0054e6"></path><path d="M721.2 209L757.2 148L718.2 174Z" fill="#3a96f7" stroke="#3a96f7"></path><path d="M743.2 433L745.1 395L693.2 426Z" fill="#0081f4" stroke="#0081f4"></path><path d="M231.8 195L227.7 238L254.8 209Z" fill="#3a96f7" stroke="#3a96f7"></path><path d="M227.7 238L216.8 239L256.7 300Z" fill="#0012cd" stroke="#0012cd"></path><path d="M219.7 165L231.8 195L288.7 146Z" fill="#60aaf9" stroke="#60aaf9"></path><path d="M455.5 8L442.5 33L513.4 57Z" fill="#0012cd" stroke="#0012cd"></path><path d="M513.4 57L442.5 33L442.5 106Z" fill="#a5d1f9" stroke="#a5d1f9"></path><path d="M235.7 384L225.7 423L271.7 436Z" fill="#60aaf9" stroke="#60aaf9"></path><path d="M271.7 436L267.7 534L319.6 479Z" fill="#0012cd" stroke="#0012cd"></path><path d="M188.8 402L225.7 423L235.7 384Z" fill="#3a96f7" stroke="#3a96f7"></path><path d="M203.8 373L235.7 384L223.8 349Z" fill="#0054e6" stroke="#0054e6"></path><path d="M780.1 343L768.1 272L724.2 312Z" fill="#0054e6" stroke="#0054e6"></path><path d="M745.2 503L743.2 433L673.3 470Z" fill="#60aaf9" stroke="#60aaf9"></path><path d="M673.3 470L743.2 433L693.2 426Z" fill="#0081f4" stroke="#0081f4"></path><path d="M745.1 395L780.1 343L707.2 367Z" fill="#c9e4f9" stroke="#c9e4f9"></path><path d="M188.8 402L203.8 373L163.8 397Z" fill="#0054e6" stroke="#0054e6"></path><path d="M216.8 321L203.8 373L223.8 349Z" fill="#83bef9" stroke="#83bef9"></path><path d="M400.6 600L523.5 600L446.5 542Z" fill="#006bee" stroke="#006bee"></path><path d="M540.4 563L666.3 551L560.4 512Z" fill="#60aaf9" stroke="#60aaf9"></path><path d="M523.5 600L534.4 600L540.4 563Z" fill="#0054e6" stroke="#0054e6"></path><path d="M772.1 399L780.1 343L745.1 395Z" fill="#60aaf9" stroke="#60aaf9"></path><path d="M534.4 600L550.4 600L540.4 563Z" fill="#0081f4" stroke="#0081f4"></path><path d="M780.1 343L781.2 263L768.1 272Z" fill="#3a96f7" stroke="#3a96f7"></path><path d="M768.1 272L792.1 238L721.2 209Z" fill="#60aaf9" stroke="#60aaf9"></path><path d="M297.6 582L385.5 593L321.6 508Z" fill="#c9e4f9" stroke="#c9e4f9"></path><path d="M321.6 508L385.5 593L378.6 509Z" fill="#006bee" stroke="#006bee"></path><path d="M402.6 558L400.6 600L446.5 542Z" fill="#a5d1f9" stroke="#a5d1f9"></path><path d="M743.2 433L772.1 399L745.1 395Z" fill="#c9e4f9" stroke="#c9e4f9"></path><path d="M206.8 97L219.7 165L281.6 136Z" fill="#3a96f7" stroke="#3a96f7"></path><path d="M281.6 136L219.7 165L288.7 146Z" fill="#60aaf9" stroke="#60aaf9"></path><path d="M231.8 195L150.8 153L216.8 239Z" fill="#a5d1f9" stroke="#a5d1f9"></path><path d="M163.8 397L203.8 373L148.9 383Z" fill="#60aaf9" stroke="#60aaf9"></path><path d="M655.3 600L666.3 551L540.4 563Z" fill="#0081f4" stroke="#0081f4"></path><path d="M743.2 433L777.2 456L772.1 399Z" fill="#0054e6" stroke="#0054e6"></path><path d="M501.5 0L455.5 8L513.4 57Z" fill="#60aaf9" stroke="#60aaf9"></path><path d="M442.5 33L411.6 0L365.6 68Z" fill="#a5d1f9" stroke="#a5d1f9"></path><path d="M365.6 68L282.7 59L341.6 98Z" fill="#a5d1f9" stroke="#a5d1f9"></path><path d="M385.5 593L400.6 600L402.6 558Z" fill="#3a96f7" stroke="#3a96f7"></path><path d="M385.5 593L396.5 600L400.6 600Z" fill="#0012cd" stroke="#0012cd"></path><path d="M688.2 31L619.4 32L632.3 80Z" fill="#0012cd" stroke="#0012cd"></path><path d="M632.3 80L619.4 32L605.4 92Z" fill="#83bef9" stroke="#83bef9"></path><path d="M750.2 131L646.2 127L718.2 174Z" fill="#0054e6" stroke="#0054e6"></path><path d="M553.4 0L501.5 0L513.4 57Z" fill="#a5d1f9" stroke="#a5d1f9"></path><path d="M203.8 373L216.8 321L146.8 329Z" fill="#0039db" stroke="#0039db"></path><path d="M203.8 373L188.8 402L235.7 384Z" fill="#0012cd" stroke="#0012cd"></path><path d="M225.7 423L207.8 453L271.7 436Z" fill="#0012cd" stroke="#0012cd"></path><path d="M187.8 451L207.8 453L184.8 449Z" fill="#0039db" stroke="#0039db"></path><path d="M207.8 453L267.7 534L271.7 436Z" fill="#3a96f7" stroke="#3a96f7"></path><path d="M385.5 593L275.6 600L396.5 600Z" fill="#3a96f7" stroke="#3a96f7"></path><path d="M810.1 245L792.1 238L781.2 263Z" fill="#eef5fa" stroke="#eef5fa"></path><path d="M781.2 263L792.1 238L768.1 272Z" fill="#eef5fa" stroke="#eef5fa"></path><path d="M501.5 0L419.5 0L455.5 8Z" fill="#0081f4" stroke="#0081f4"></path><path d="M455.5 8L419.5 0L442.5 33Z" fill="#c9e4f9" stroke="#c9e4f9"></path><path d="M572.4 0L513.4 57L605.4 92Z" fill="#a5d1f9" stroke="#a5d1f9"></path><path d="M798.1 209L757.2 148L721.2 209Z" fill="#3a96f7" stroke="#3a96f7"></path><path d="M419.5 0L411.6 0L442.5 33Z" fill="#0012cd" stroke="#0012cd"></path><path d="M757.2 148L750.2 131L718.2 174Z" fill="#0012cd" stroke="#0012cd"></path><path d="M666.3 551L729.2 516L673.3 470Z" fill="#0039db" stroke="#0039db"></path><path d="M324.6 0L282.7 59L365.6 68Z" fill="#3a96f7" stroke="#3a96f7"></path><path d="M619.4 32L572.4 0L605.4 92Z" fill="#eef5fa" stroke="#eef5fa"></path><path d="M729.2 516L745.2 503L673.3 470Z" fill="#c9e4f9" stroke="#c9e4f9"></path><path d="M745.2 503L777.2 456L743.2 433Z" fill="#0012cd" stroke="#0012cd"></path><path d="M772.1 399L811.1 394L780.1 343Z" fill="#006bee" stroke="#006bee"></path><path d="M810.1 245L798.1 209L792.1 238Z" fill="#0081f4" stroke="#0081f4"></path><path d="M184.8 449L207.8 453L225.7 423Z" fill="#0054e6" stroke="#0054e6"></path><path d="M176.8 543L246.7 566L267.7 534Z" fill="#83bef9" stroke="#83bef9"></path><path d="M264.6 37L268.7 61L282.7 59Z" fill="#3a96f7" stroke="#3a96f7"></path><path d="M282.7 59L268.7 61L281.6 136Z" fill="#0054e6" stroke="#0054e6"></path><path d="M810.1 245L781.2 263L780.1 343Z" fill="#eef5fa" stroke="#eef5fa"></path><path d="M792.1 238L798.1 209L721.2 209Z" fill="#60aaf9" stroke="#60aaf9"></path><path d="M757.2 148L795.1 113L750.2 131Z" fill="#0012cd" stroke="#0012cd"></path><path d="M246.7 566L297.6 582L267.7 534Z" fill="#a5d1f9" stroke="#a5d1f9"></path><path d="M267.7 534L297.6 582L321.6 508Z" fill="#60aaf9" stroke="#60aaf9"></path><path d="M188.8 402L184.8 449L225.7 423Z" fill="#3a96f7" stroke="#3a96f7"></path><path d="M176.8 543L267.7 534L207.8 453Z" fill="#a5d1f9" stroke="#a5d1f9"></path><path d="M883.1 280L810.1 245L780.1 343Z" fill="#0081f4" stroke="#0081f4"></path><path d="M146.8 329L216.8 321L216.8 239Z" fill="#0081f4" stroke="#0081f4"></path><path d="M188.8 402L163.8 397L184.8 449Z" fill="#60aaf9" stroke="#60aaf9"></path><path d="M550.4 600L655.3 600L540.4 563Z" fill="#a5d1f9" stroke="#a5d1f9"></path><path d="M666.3 551L732.2 549L729.2 516Z" fill="#0012cd" stroke="#0012cd"></path><path d="M729.2 516L761.1 547L745.2 503Z" fill="#006bee" stroke="#006bee"></path><path d="M813.1 403L811.1 394L772.1 399Z" fill="#c9e4f9" stroke="#c9e4f9"></path><path d="M112.8 220L146.8 329L216.8 239Z" fill="#3a96f7" stroke="#3a96f7"></path><path d="M777.2 456L813.1 403L772.1 399Z" fill="#60aaf9" stroke="#60aaf9"></path><path d="M845.1 190L798.1 209L810.1 245Z" fill="#83bef9" stroke="#83bef9"></path><path d="M146.8 329L148.9 383L203.8 373Z" fill="#83bef9" stroke="#83bef9"></path><path d="M163.8 397L142.8 439L184.8 449Z" fill="#a5d1f9" stroke="#a5d1f9"></path><path d="M745.2 503L811.1 486L777.2 456Z" fill="#a5d1f9" stroke="#a5d1f9"></path><path d="M777.2 456L811.1 486L813.1 403Z" fill="#0081f4" stroke="#0081f4"></path><path d="M706.2 581L732.2 549L666.3 551Z" fill="#0081f4" stroke="#0081f4"></path><path d="M750.2 131L688.2 31L646.2 127Z" fill="#0012cd" stroke="#0012cd"></path><path d="M619.4 32L657.3 9L572.4 0Z" fill="#a5d1f9" stroke="#a5d1f9"></path><path d="M688.2 31L657.3 9L619.4 32Z" fill="#eef5fa" stroke="#eef5fa"></path><path d="M411.6 0L324.6 0L365.6 68Z" fill="#0081f4" stroke="#0081f4"></path><path d="M268.7 61L206.8 97L281.6 136Z" fill="#0054e6" stroke="#0054e6"></path><path d="M219.7 165L150.8 153L231.8 195Z" fill="#0039db" stroke="#0039db"></path><path d="M264.6 37L206.8 97L268.7 61Z" fill="#0054e6" stroke="#0054e6"></path><path d="M324.6 0L264.6 37L282.7 59Z" fill="#a5d1f9" stroke="#a5d1f9"></path><path d="M176.8 543L207.8 453L187.8 451Z" fill="#3a96f7" stroke="#3a96f7"></path><path d="M176.8 543L187.8 451L184.8 449Z" fill="#a5d1f9" stroke="#a5d1f9"></path><path d="M692.2 600L706.2 581L666.3 551Z" fill="#006bee" stroke="#006bee"></path><path d="M162.8 96L200.8 101L206.8 97Z" fill="#0081f4" stroke="#0081f4"></path><path d="M206.8 97L200.8 101L219.7 165Z" fill="#a5d1f9" stroke="#a5d1f9"></path><path d="M750.2 131L703.2 28L688.2 31Z" fill="#006bee" stroke="#006bee"></path><path d="M688.2 31L678.3 0L657.3 9Z" fill="#0081f4" stroke="#0081f4"></path><path d="M811.1 81L703.2 28L750.2 131Z" fill="#a5d1f9" stroke="#a5d1f9"></path><path d="M655.3 600L692.2 600L666.3 551Z" fill="#0039db" stroke="#0039db"></path><path d="M747.1 600L761.1 547L732.2 549Z" fill="#eef5fa" stroke="#eef5fa"></path><path d="M246.7 566L275.6 600L297.6 582Z" fill="#83bef9" stroke="#83bef9"></path><path d="M297.6 582L275.6 600L385.5 593Z" fill="#0054e6" stroke="#0054e6"></path><path d="M726.2 600L732.2 549L706.2 581Z" fill="#0039db" stroke="#0039db"></path><path d="M732.2 549L761.1 547L729.2 516Z" fill="#006bee" stroke="#006bee"></path><path d="M682.2 0L678.3 0L688.2 31Z" fill="#a5d1f9" stroke="#a5d1f9"></path><path d="M657.3 9L678.3 0L572.4 0Z" fill="#83bef9" stroke="#83bef9"></path><path d="M105.9 376L142.8 439L148.9 383Z" fill="#83bef9" stroke="#83bef9"></path><path d="M148.9 383L142.8 439L163.8 397Z" fill="#3a96f7" stroke="#3a96f7"></path><path d="M702.2 0L682.2 0L688.2 31Z" fill="#60aaf9" stroke="#60aaf9"></path><path d="M840.1 176L757.2 148L798.1 209Z" fill="#0039db" stroke="#0039db"></path><path d="M840.1 176L795.1 113L757.2 148Z" fill="#3a96f7" stroke="#3a96f7"></path><path d="M703.2 28L702.2 0L688.2 31Z" fill="#0081f4" stroke="#0081f4"></path><path d="M200.8 101L150.8 153L219.7 165Z" fill="#3a96f7" stroke="#3a96f7"></path><path d="M146.8 329L105.9 376L148.9 383Z" fill="#0081f4" stroke="#0081f4"></path><path d="M761.1 547L811.1 486L745.2 503Z" fill="#0054e6" stroke="#0054e6"></path><path d="M692.2 600L726.2 600L706.2 581Z" fill="#0081f4" stroke="#0081f4"></path><path d="M890.1 471L873.1 464L900 499Z" fill="#eef5fa" stroke="#eef5fa"></path><path d="M775.1 0L702.2 0L703.2 28Z" fill="#0054e6" stroke="#0054e6"></path><path d="M324.6 0L264.7 0L264.6 37Z" fill="#a5d1f9" stroke="#a5d1f9"></path><path d="M161.8 37L162.8 96L206.8 97Z" fill="#006bee" stroke="#006bee"></path><path d="M200.8 101L148.9 110L150.8 153Z" fill="#0054e6" stroke="#0054e6"></path><path d="M845.1 190L840.1 176L798.1 209Z" fill="#eef5fa" stroke="#eef5fa"></path><path d="M845.1 190L810.1 245L884.1 253Z" fill="#c9e4f9" stroke="#c9e4f9"></path><path d="M780.1 343L900 317L883.1 280Z" fill="#0054e6" stroke="#0054e6"></path><path d="M780.1 343L900 340L900 317Z" fill="#3a96f7" stroke="#3a96f7"></path><path d="M150.8 153L112.8 220L216.8 239Z" fill="#006bee" stroke="#006bee"></path><path d="M90.9 289L105.9 376L146.8 329Z" fill="#0081f4" stroke="#0081f4"></path><path d="M202.8 0L206.8 97L264.6 37Z" fill="#eef5fa" stroke="#eef5fa"></path><path d="M105.8 157L105.9 217L112.8 220Z" fill="#eef5fa" stroke="#eef5fa"></path><path d="M101.9 518L176.8 543L142.8 439Z" fill="#0012cd" stroke="#0012cd"></path><path d="M142.8 439L176.8 543L184.8 449Z" fill="#eef5fa" stroke="#eef5fa"></path><path d="M246.7 566L227.7 600L275.6 600Z" fill="#0039db" stroke="#0039db"></path><path d="M176.8 543L227.7 600L246.7 566Z" fill="#c9e4f9" stroke="#c9e4f9"></path><path d="M88.9 219L105.9 217L87.9 210Z" fill="#0054e6" stroke="#0054e6"></path><path d="M112.8 220L90.9 289L146.8 329Z" fill="#c9e4f9" stroke="#c9e4f9"></path><path d="M162.8 96L148.9 110L200.8 101Z" fill="#0054e6" stroke="#0054e6"></path><path d="M726.2 600L747.1 600L732.2 549Z" fill="#c9e4f9" stroke="#c9e4f9"></path><path d="M88.9 219L90.9 289L112.8 220Z" fill="#0054e6" stroke="#0054e6"></path><path d="M841.1 82L795.1 113L840.1 176Z" fill="#eef5fa" stroke="#eef5fa"></path><path d="M841.1 82L811.1 81L795.1 113Z" fill="#006bee" stroke="#006bee"></path><path d="M795.1 113L811.1 81L750.2 131Z" fill="#60aaf9" stroke="#60aaf9"></path><path d="M780.1 343L811.1 394L900 340Z" fill="#0081f4" stroke="#0081f4"></path><path d="M845.1 190L900 138L840.1 176Z" fill="#0054e6" stroke="#0054e6"></path><path d="M883.1 280L884.1 253L810.1 245Z" fill="#0081f4" stroke="#0081f4"></path><path d="M105.8 157L112.8 220L150.8 153Z" fill="#3a96f7" stroke="#3a96f7"></path><path d="M105.9 217L88.9 219L112.8 220Z" fill="#c9e4f9" stroke="#c9e4f9"></path><path d="M104.9 149L105.8 157L150.8 153Z" fill="#0012cd" stroke="#0012cd"></path><path d="M105.8 157L87.9 210L105.9 217Z" fill="#60aaf9" stroke="#60aaf9"></path><path d="M88.9 219L39.9 288L90.9 289Z" fill="#60aaf9" stroke="#60aaf9"></path><path d="M148.9 110L104.9 149L150.8 153Z" fill="#0054e6" stroke="#0054e6"></path><path d="M105.8 157L79.9 147L87.9 210Z" fill="#006bee" stroke="#006bee"></path><path d="M113.9 81L104.9 149L148.9 110Z" fill="#0081f4" stroke="#0081f4"></path><path d="M113.9 81L148.9 110L162.8 96Z" fill="#3a96f7" stroke="#3a96f7"></path><path d="M900 340L811.1 394L813.1 403Z" fill="#0039db" stroke="#0039db"></path><path d="M883.1 280L900 234L884.1 253Z" fill="#0054e6" stroke="#0054e6"></path><path d="M900 448L900 340L813.1 403Z" fill="#3a96f7" stroke="#3a96f7"></path><path d="M873.1 464L813.1 403L811.1 486Z" fill="#0039db" stroke="#0039db"></path><path d="M264.7 0L202.8 0L264.6 37Z" fill="#eef5fa" stroke="#eef5fa"></path><path d="M873.1 464L811.1 486L900 499Z" fill="#60aaf9" stroke="#60aaf9"></path><path d="M202.8 0L161.8 37L206.8 97Z" fill="#0012cd" stroke="#0012cd"></path><path d="M900 317L900 234L883.1 280Z" fill="#83bef9" stroke="#83bef9"></path><path d="M884.1 253L900 232L845.1 190Z" fill="#0012cd" stroke="#0012cd"></path><path d="M900 234L900 232L884.1 253Z" fill="#3a96f7" stroke="#3a96f7"></path><path d="M900 138L841.1 82L840.1 176Z" fill="#0054e6" stroke="#0054e6"></path><path d="M811.1 81L775.1 0L703.2 28Z" fill="#eef5fa" stroke="#eef5fa"></path><path d="M856.1 0L775.1 0L811.1 81Z" fill="#3a96f7" stroke="#3a96f7"></path><path d="M8.9 357L73.9 433L105.9 376Z" fill="#0039db" stroke="#0039db"></path><path d="M105.9 376L73.9 433L142.8 439Z" fill="#c9e4f9" stroke="#c9e4f9"></path><path d="M176.8 543L161.8 600L227.7 600Z" fill="#006bee" stroke="#006bee"></path><path d="M39.9 288L105.9 376L90.9 289Z" fill="#0081f4" stroke="#0081f4"></path><path d="M73.9 433L82.9 470L142.8 439Z" fill="#0039db" stroke="#0039db"></path><path d="M106.9 576L161.8 600L176.8 543Z" fill="#a5d1f9" stroke="#a5d1f9"></path><path d="M161.8 37L113.9 81L162.8 96Z" fill="#0081f4" stroke="#0081f4"></path><path d="M104.9 149L79.9 147L105.8 157Z" fill="#0054e6" stroke="#0054e6"></path><path d="M82.9 470L101.9 518L142.8 439Z" fill="#0081f4" stroke="#0081f4"></path><path d="M113.9 81L79.9 147L104.9 149Z" fill="#c9e4f9" stroke="#c9e4f9"></path><path d="M0 250L39.9 288L88.9 219Z" fill="#0012cd" stroke="#0012cd"></path><path d="M900 499L811.1 486L900 542Z" fill="#60aaf9" stroke="#60aaf9"></path><path d="M873.1 464L900 448L813.1 403Z" fill="#0054e6" stroke="#0054e6"></path><path d="M900 454L900 448L873.1 464Z" fill="#83bef9" stroke="#83bef9"></path><path d="M890.1 471L900 454L873.1 464Z" fill="#0039db" stroke="#0039db"></path><path d="M0 291L39.9 288L0 250Z" fill="#0039db" stroke="#0039db"></path><path d="M900 232L900 138L845.1 190Z" fill="#0012cd" stroke="#0012cd"></path><path d="M841.1 82L856.1 0L811.1 81Z" fill="#0039db" stroke="#0039db"></path><path d="M113.9 81L99.9 75L79.9 147Z" fill="#60aaf9" stroke="#60aaf9"></path><path d="M79.9 147L0 201L87.9 210Z" fill="#0054e6" stroke="#0054e6"></path><path d="M161.8 37L99.9 75L113.9 81Z" fill="#eef5fa" stroke="#eef5fa"></path><path d="M108.8 0L99.9 75L161.8 37Z" fill="#3a96f7" stroke="#3a96f7"></path><path d="M900 542L811.1 486L761.1 547Z" fill="#a5d1f9" stroke="#a5d1f9"></path><path d="M890.1 471L900 499L900 454Z" fill="#60aaf9" stroke="#60aaf9"></path><path d="M73.9 433L57.9 482L82.9 470Z" fill="#3a96f7" stroke="#3a96f7"></path><path d="M82.9 470L57.9 482L101.9 518Z" fill="#0012cd" stroke="#0012cd"></path><path d="M101.9 518L106.9 576L176.8 543Z" fill="#0012cd" stroke="#0012cd"></path><path d="M18.9 436L57.9 482L73.9 433Z" fill="#0039db" stroke="#0039db"></path><path d="M78.9 549L106.9 576L101.9 518Z" fill="#c9e4f9" stroke="#c9e4f9"></path><path d="M202.8 0L139.9 0L161.8 37Z" fill="#c9e4f9" stroke="#c9e4f9"></path><path d="M900 138L892.1 87L841.1 82Z" fill="#0054e6" stroke="#0054e6"></path><path d="M106.9 576L120.8 600L161.8 600Z" fill="#a5d1f9" stroke="#a5d1f9"></path><path d="M0 111L52.9 133L0 96Z" fill="#0039db" stroke="#0039db"></path><path d="M99.9 75L52.9 133L79.9 147Z" fill="#0039db" stroke="#0039db"></path><path d="M57.9 482L78.9 549L101.9 518Z" fill="#0054e6" stroke="#0054e6"></path><path d="M106.9 576L105.8 595L120.8 600Z" fill="#eef5fa" stroke="#eef5fa"></path><path d="M83.9 600L105.8 595L106.9 576Z" fill="#60aaf9" stroke="#60aaf9"></path><path d="M899.1 581L900 542L761.1 547Z" fill="#0054e6" stroke="#0054e6"></path><path d="M900 138L900 76L892.1 87Z" fill="#83bef9" stroke="#83bef9"></path><path d="M892.1 87L900 76L841.1 82Z" fill="#3a96f7" stroke="#3a96f7"></path><path d="M0 300L8.9 357L39.9 288Z" fill="#83bef9" stroke="#83bef9"></path><path d="M39.9 288L8.9 357L105.9 376Z" fill="#0054e6" stroke="#0054e6"></path><path d="M0 600L67.9 600L78.9 549Z" fill="#c9e4f9" stroke="#c9e4f9"></path><path d="M0 414L18.9 436L73.9 433Z" fill="#a5d1f9" stroke="#a5d1f9"></path><path d="M900 76L856.1 0L841.1 82Z" fill="#0039db" stroke="#0039db"></path><path d="M0 291L0 300L39.9 288Z" fill="#eef5fa" stroke="#eef5fa"></path><path d="M8.9 357L0 414L73.9 433Z" fill="#0039db" stroke="#0039db"></path><path d="M0 250L88.9 219L0 201Z" fill="#c9e4f9" stroke="#c9e4f9"></path><path d="M139.9 0L108.8 0L161.8 37Z" fill="#c9e4f9" stroke="#c9e4f9"></path><path d="M0 201L88.9 219L87.9 210Z" fill="#0012cd" stroke="#0012cd"></path><path d="M0 201L79.9 147L52.9 133Z" fill="#0012cd" stroke="#0012cd"></path><path d="M67.9 600L83.9 600L78.9 549Z" fill="#3a96f7" stroke="#3a96f7"></path><path d="M78.9 549L83.9 600L106.9 576Z" fill="#c9e4f9" stroke="#c9e4f9"></path><path d="M105.8 595L83.9 600L120.8 600Z" fill="#c9e4f9" stroke="#c9e4f9"></path><path d="M0 300L0 414L8.9 357Z" fill="#0081f4" stroke="#0081f4"></path><path d="M0 510L78.9 549L57.9 482Z" fill="#a5d1f9" stroke="#a5d1f9"></path><path d="M892.1 600L899.1 581L761.1 547Z" fill="#006bee" stroke="#006bee"></path><path d="M0 111L0 201L52.9 133Z" fill="#eef5fa" stroke="#eef5fa"></path><path d="M0 414L0 422L18.9 436Z" fill="#c9e4f9" stroke="#c9e4f9"></path><path d="M108.8 0L91.9 0L99.9 75Z" fill="#eef5fa" stroke="#eef5fa"></path><path d="M747.1 600L892.1 600L761.1 547Z" fill="#0081f4" stroke="#0081f4"></path><path d="M892.1 600L900 600L899.1 581Z" fill="#83bef9" stroke="#83bef9"></path><path d="M899.1 581L900 600L900 542Z" fill="#0054e6" stroke="#0054e6"></path><path d="M0 467L57.9 482L18.9 436Z" fill="#eef5fa" stroke="#eef5fa"></path><path d="M0 422L0 467L18.9 436Z" fill="#0012cd" stroke="#0012cd"></path><path d="M91.9 0L70.9 4L99.9 75Z" fill="#3a96f7" stroke="#3a96f7"></path><path d="M900 76L900 0L856.1 0Z" fill="#0054e6" stroke="#0054e6"></path><path d="M0 96L52.9 133L99.9 75Z" fill="#006bee" stroke="#006bee"></path><path d="M0 467L0 510L57.9 482Z" fill="#eef5fa" stroke="#eef5fa"></path><path d="M0 62L0 96L99.9 75Z" fill="#c9e4f9" stroke="#c9e4f9"></path><path d="M70.9 4L0 62L99.9 75Z" fill="#0039db" stroke="#0039db"></path><path d="M0 510L0 600L78.9 549Z" fill="#3a96f7" stroke="#3a96f7"></path><path d="M91.9 0L0 0L70.9 4Z" fill="#c9e4f9" stroke="#c9e4f9"></path><path d="M70.9 4L0 0L0 62Z" fill="#a5d1f9" stroke="#a5d1f9"></path></g></svg>